<?xml version="1.0" encoding="UTF-8" standalone="no"?>
<svg
   xmlns:dc="http://purl.org/dc/elements/1.1/"
   xmlns:cc="http://creativecommons.org/ns#"
   xmlns:rdf="http://www.w3.org/1999/02/22-rdf-syntax-ns#"
   xmlns:svg="http://www.w3.org/2000/svg"
   xmlns="http://www.w3.org/2000/svg"
   id="svg35"
   version="1.1"
   viewBox="0 0 162.27777 162.27777"
   height="460pt"
   width="460pt">
  <defs
     id="defs29" />
  <metadata
     id="metadata32">
    <rdf:RDF>
      <cc:Work
         rdf:about="">
        <dc:format>image/svg+xml</dc:format>
        <dc:type
           rdf:resource="http://purl.org/dc/dcmitype/StillImage" />
        <dc:title></dc:title>
      </cc:Work>
    </rdf:RDF>
  </metadata>
  <g
     style="display:inline"
     transform="translate(0,-134.72224)"
     id="layer1">
    <path
       id="path64"
       d="m 81.138887,134.72224 c -44.602844,0 -81.14026624,36.53586 -81.1402665,81.13871 0,44.60284 36.5374225,81.14079 81.1402665,81.14079 29.473333,0 55.420363,-15.95671 69.634503,-39.64978 l -30.55317,-17.3147 c -8.03507,13.0646 -22.451313,21.68498 -39.081333,21.68498 -25.537318,0 -45.861284,-20.32397 -45.861284,-45.86129 0,-25.53732 20.323966,-45.85921 45.861284,-45.85921 16.630454,0 31.047013,8.61985 39.081853,21.68446 l 30.55317,-17.3147 C 136.55988,150.67865 110.61252,134.72224 81.138887,134.72224 Z m 71.386343,42.71212 -30.57333,17.32555 c 3.22904,6.29878 5.04672,13.46634 5.04672,21.10104 0,7.63512 -1.81782,14.80334 -5.04724,21.10259 l 30.57333,17.32608 c 6.21513,-11.45769 9.75289,-24.5525 9.75289,-38.42867 0,-13.8756 -3.53773,-26.96953 -9.75237,-38.42659 z"
       style="color:#000000;font-style:normal;font-variant:normal;font-weight:normal;font-stretch:normal;font-size:medium;line-height:normal;font-family:sans-serif;font-variant-ligatures:normal;font-variant-position:normal;font-variant-caps:normal;font-variant-numeric:normal;font-variant-alternates:normal;font-feature-settings:normal;text-indent:0;text-align:start;text-decoration:none;text-decoration-line:none;text-decoration-style:solid;text-decoration-color:#000000;letter-spacing:normal;word-spacing:normal;text-transform:none;writing-mode:lr-tb;direction:ltr;text-orientation:mixed;dominant-baseline:auto;baseline-shift:baseline;text-anchor:start;white-space:normal;shape-padding:0;clip-rule:nonzero;display:inline;overflow:visible;visibility:visible;opacity:1;isolation:auto;mix-blend-mode:normal;color-interpolation:sRGB;color-interpolation-filters:linearRGB;solid-color:#000000;solid-opacity:1;vector-effect:none;fill:#ffffff;fill-opacity:1;fill-rule:nonzero;stroke:none;stroke-width:35.27777863;stroke-linecap:butt;stroke-linejoin:miter;stroke-miterlimit:4;stroke-dasharray:none;stroke-dashoffset:0;stroke-opacity:1;color-rendering:auto;image-rendering:auto;shape-rendering:auto;text-rendering:auto;enable-background:accumulate" />
  </g>
  <g
     style="display:none"
     id="layer2">
    <path
       id="path1403"
       d="m 168.98055,107.20557 c -10.19744,0 -18.51953,8.32405 -18.51953,18.52148 0,10.19743 8.32209,18.52148 18.51953,18.52148 10.19743,0 18.52148,-8.32405 18.52148,-18.52148 0,-10.19743 -8.32405,-18.52148 -18.52148,-18.52148 z m 0,5.29296 c 7.3376,0 13.23047,5.89091 13.23047,13.22852 0,7.33761 -5.89287,13.22852 -13.23047,13.22852 -7.33761,0 -13.22852,-5.89091 -13.22852,-13.22852 0,-7.33761 5.89091,-13.22852 13.22852,-13.22852 z"
       style="color:#000000;font-style:normal;font-variant:normal;font-weight:normal;font-stretch:normal;font-size:medium;line-height:normal;font-family:sans-serif;font-variant-ligatures:normal;font-variant-position:normal;font-variant-caps:normal;font-variant-numeric:normal;font-variant-alternates:normal;font-feature-settings:normal;text-indent:0;text-align:start;text-decoration:none;text-decoration-line:none;text-decoration-style:solid;text-decoration-color:#000000;letter-spacing:normal;word-spacing:normal;text-transform:none;writing-mode:lr-tb;direction:ltr;text-orientation:mixed;dominant-baseline:auto;baseline-shift:baseline;text-anchor:start;white-space:normal;shape-padding:0;clip-rule:nonzero;display:inline;overflow:visible;visibility:visible;opacity:1;isolation:auto;mix-blend-mode:normal;color-interpolation:sRGB;color-interpolation-filters:linearRGB;solid-color:#000000;solid-opacity:1;vector-effect:none;fill:#000000;fill-opacity:1;fill-rule:nonzero;stroke:none;stroke-width:5.29166651;stroke-linecap:butt;stroke-linejoin:miter;stroke-miterlimit:4;stroke-dasharray:none;stroke-dashoffset:0;stroke-opacity:1;color-rendering:auto;image-rendering:auto;shape-rendering:auto;text-rendering:auto;enable-background:accumulate"
       transform="translate(0,-134.72224)" />
  </g>
  <g
     transform="translate(0,-14.111111)"
     style="display:none"
     id="layer3">
    <path
       id="rect884"
       d="m 33.247055,118.44907 h 88.194435 v 3.52778 H 33.247055 Z"
       style="fill:#430000;fill-opacity:1;stroke:none;stroke-width:28.22222137;stroke-miterlimit:4;stroke-dasharray:none;stroke-opacity:1"
       transform="rotate(-29.540257)" />
    <path
       id="rect884-3"
       d="m 87.324783,89.729057 76.729997,43.482933 1.73932,-3.0692 -76.729998,-43.482943 z"
       style="fill:#430000;fill-opacity:1;stroke:none;stroke-width:28.22222137;stroke-miterlimit:4;stroke-dasharray:none;stroke-opacity:1" />
  </g>
</svg>
